<svg version="1" xmlns="http://www.w3.org/2000/svg" width="682.667" height="682.667" viewBox="0 0 512.000000 512.000000"><path d="M67.5 17.5c-14.3 9.7-26.4 18-27 18.6-.7.7-1 36.5-1.1 104.8v103.8l-4.5 6.4c-2.4 3.5-4.8 6.8-5.2 7.4-3 3.7-14.7 21.1-14.8 21.9-.1.6-.2 17.5-.3 37.5-.1 26.3.2 36.8 1.1 38 .9 1.3 3.2 1.6 12.2 1.6 9.3-.1 11.1.2 11.2 1.5.1.8.2 4 .3 7.1l.1 5.5 16.9 21c9.3 11.5 17.5 21.4 18.2 22 .7.6 3.6 1 6.4.9 2.7-.1 5 .1 5 .4 0 .3-11.8 12.4-26.3 26.8C11 491.4 8 494.5 7.5 497c-.9 4.4 4.2 7.7 8.5 5.5 1.4-.7 6.6-5.5 11.6-10.7 5-5.2 10.8-10.8 12.7-12.5l3.6-3.1h66.5c36.6 0 66.6.3 66.6.6s-5.9 6.3-13 13.4c-10.6 10.6-13 13.5-13 15.8 0 3.1 3 6 6.2 6 1 0 22.8-20.9 50.3-48.3l48.5-48.3 8 .1 8 .1 13.5-13.6c7.4-7.4 20.1-20.3 28.2-28.7 8.1-8.3 15.8-15.6 17.1-16.2 1.2-.7 2.2-1.8 2.2-2.5 0-1.8 31.6-32.6 49.5-48.1 3.8-3.3 8.7-7.6 10.9-9.6 32-28 76-54.3 105.4-63 6-1.8 6.1-2.4 6.2-53.1.1-42.2-.1-45.7-1.7-47.7-1.3-1.5-5.3-3-13.3-5.2-14-3.7-34.1-10.6-47-16-9.9-4.3-39.3-18.7-47-23.1-2.5-1.5-6.1-3.4-8-4.5-14-7.4-75.5-47.5-120.8-78.7L259 0H93.4L67.5 17.5zM39.3 303.7c-.1 24.7-.2 45.1-.2 45.4-.1.7-16.1.6-16.2-.1-.1-.3-.2-15.1-.4-33-.1-27.3.1-32.9 1.3-35 1.8-2.9 15.2-22 15.5-22 .1 0 .1 20.1 0 44.7zM238 415.9c0 .1-1.6 1.9-3.6 4l-3.7 3.6h-66.8c-36.8.1-66.9-.1-66.9-.4 0-.3 1.6-2.1 3.5-4.1l3.4-3.5H171c36.8 0 67 .2 67 .4zm-28 28c0 .9-12.1 12.1-13.2 12.2-.7.1-30.9.2-67 .3-43.4.1-65.8-.2-65.7-.9 0-.6 2.9-3.5 6.2-6.5l6.2-5.5h66.8c36.7 0 66.7.1 66.7.4z"/></svg>